<svg id="Capa_1" enable-background="new 0 0 510 510" fill="#1FFFE9" height="512" viewBox="0 0 510 510" width="512" xmlns="http://www.w3.org/2000/svg"><g id="XMLID_1390_"><path id="XMLID_1410_" d="m255 0c-140.93 0-255 114.051-255 255 0 140.93 114.051 255 255 255 140.93 0 255-114.049 255-255 0-140.93-114.049-255-255-255zm0 480c-124.065 0-225-100.935-225-225s100.935-225 225-225 225 100.935 225 225-100.935 225-225 225z"/><path id="XMLID_1825_" d="m270 180h-30v150h75v-30h-45z"/><path id="XMLID_1826_" d="m375 300v-120h-30v150h75v-30z"/><path id="XMLID_1830_" d="m165 180c-24.814 0-45 20.186-45 45v105h30v-45h30v45h30v-105c0-24.814-20.186-45-45-45zm-15 75v-30c0-8.271 6.729-15 15-15s15 6.729 15 15v30z"/></g></svg>