<svg enable-background="new 0 0 512 512"
     fill="#1FFFE9"
     height="512"
     viewBox="0 0 512 512"
     width="512"
     xmlns="http://www.w3.org/2000/svg">
    <path d="m490 70h-460c-5.523 0-10 4.477-10 10v351.538 8.462c0 5.522 4.477 10 10 10h455 5c5.522 0 10-4.478 10-10v-360c0-5.523-4.478-10-10-10zm-450 20h440v317.64l-81.056-162.112c-3.009-6.019-11.284-7.331-16.016-2.599l-102.928 102.928-52.946-52.945c-.013-.014-.027-.027-.041-.041l-79.942-79.942c-4.706-4.705-12.878-3.436-15.943 2.458l-91.128 175.245zm102.577 146.719 61.727 61.727-13.029 8.686-24.203-24.203c-3.371-3.37-8.651-3.893-12.618-1.249l-21.68 14.453-11.849-17.773zm-100.506 193.281 68.321-131.386 11.288 16.933c3.063 4.596 9.272 5.837 13.867 2.773l23.179-15.452 24.203 24.203c3.33 3.329 8.696 3.863 12.618 1.249l23.179-15.452 54.203 54.203c3.906 3.904 10.236 3.904 14.143 0l100.189-100.189 81.558 163.118z"/><path d="m280 260c25.314 0 48.493-16.559 56.744-40.49 8.349-24.213-.073-51.695-20.393-67.216-20.367-15.557-49.226-16.275-70.33-1.723-21.035 14.505-30.784 41.502-23.671 66.084 7.337 25.351 31.263 43.345 57.65 43.345zm0-100c26.572 0 46.179 26.7 38.143 52.061-7.978 25.172-39.023 35.904-60.794 20.892-14.319-9.873-20.754-28.405-15.491-45.013 5.205-16.429 20.91-27.94 38.142-27.94z"/></svg>