<svg id="Filled_Expand" height="512" viewBox="0 0 64 64" width="512" xmlns="http://www.w3.org/2000/svg" data-name="Filled Expand"><rect fill="#f9f9f9" height="18" rx="4" width="60" x="2" y="45"/><path d="m8 48h51a3 3 0 0 1 3 3v8a4 4 0 0 1 -4 4h-50a3 3 0 0 1 -3-3v-9a3 3 0 0 1 3-3z" fill="#f0f0f0"/><rect fill="#cdf2ff" height="10" rx="3" width="56" x="4" y="30"/><path d="m60 37v-4h-50a3 3 0 0 0 -3 3v4h50a3 3 0 0 0 3-3z" fill="#abe9ff"/><path d="m7 30h39a0 0 0 0 1 0 0v10a0 0 0 0 1 0 0h-39a3 3 0 0 1 -3-3v-4a3 3 0 0 1 3-3z" fill="#f38296"/><g fill="#f06478"><path d="m46 33h-36a3 3 0 0 0 -3 3v4h39z"/><rect height="7" rx="1.5" width="3" x="30.5" y="1"/><rect height="7" rx="1.5" width="3" x="30.5" y="19"/></g><rect fill="#f0f0f0" height="7" rx="1.5" transform="matrix(.5 -.866 .866 .5 4.309 25.463)" width="3" x="22.706" y="5.5"/><rect fill="#f06478" height="7" rx="1.5" transform="matrix(.5 -.866 .866 .5 4.309 43.463)" width="3" x="38.294" y="14.5"/><rect fill="#f0f0f0" height="7" rx="1.5" transform="matrix(-.5 -.866 .866 -.5 20.72 47.963)" width="3" x="22.706" y="14.5"/><rect fill="#f06478" height="7" rx="1.5" transform="matrix(-.5 -.866 .866 -.5 51.897 47.963)" width="3" x="38.294" y="5.5"/><path d="m58 44.25h-52a4.756 4.756 0 0 0 -4.75 4.75v10a4.756 4.756 0 0 0 4.75 4.75h52a4.756 4.756 0 0 0 4.75-4.75v-10a4.756 4.756 0 0 0 -4.75-4.75zm3.25 14.75a3.254 3.254 0 0 1 -3.25 3.25h-52a3.254 3.254 0 0 1 -3.25-3.25v-10a3.254 3.254 0 0 1 3.25-3.25h52a3.254 3.254 0 0 1 3.25 3.25z"/><path d="m7 40.75h50a3.755 3.755 0 0 0 3.75-3.75v-4a3.755 3.755 0 0 0 -3.75-3.75h-50a3.755 3.755 0 0 0 -3.75 3.75v4a3.755 3.755 0 0 0 3.75 3.75zm39.75-10h10.25a2.253 2.253 0 0 1 2.25 2.25v4a2.253 2.253 0 0 1 -2.25 2.25h-10.25zm-42 2.25a2.253 2.253 0 0 1 2.25-2.25h38.25v8.5h-38.25a2.253 2.253 0 0 1 -2.25-2.25z"/><path d="m32 8.75a2.253 2.253 0 0 0 2.25-2.25v-4a2.25 2.25 0 0 0 -4.5 0v4a2.253 2.253 0 0 0 2.25 2.25zm-.75-6.25a.75.75 0 0 1 1.5 0v4a.75.75 0 0 1 -1.5 0z"/><path d="m32 26.75a2.253 2.253 0 0 0 2.25-2.25v-4a2.25 2.25 0 0 0 -4.5 0v4a2.253 2.253 0 0 0 2.25 2.25zm-.75-6.25a.75.75 0 0 1 1.5 0v4a.75.75 0 0 1 -1.5 0z"/><path d="m21.349 9.949 3.464 2a2.25 2.25 0 0 0 2.25-3.9l-3.464-2a2.25 2.25 0 1 0 -2.25 3.9zm.475-2.324a.752.752 0 0 1 1.025-.275l3.464 2a.75.75 0 0 1 -.75 1.3l-3.464-2a.751.751 0 0 1 -.275-1.025z"/><path d="m36.937 18.949 3.464 2a2.25 2.25 0 1 0 2.25-3.9l-3.464-2a2.25 2.25 0 0 0 -2.25 3.9zm.476-2.324a.751.751 0 0 1 1.024-.275l3.464 2a.75.75 0 1 1 -.75 1.3l-3.464-2a.75.75 0 0 1 -.274-1.025z"/><path d="m23.6 20.949 3.464-2a2.25 2.25 0 0 0 -2.25-3.9l-3.464 2a2.25 2.25 0 0 0 2.25 3.9zm-1.5-2.6 3.464-2a.75.75 0 0 1 .75 1.3l-3.464 2a.75.75 0 1 1 -.75-1.3z"/><path d="m39.187 11.949 3.464-2a2.25 2.25 0 0 0 -2.25-3.9l-3.464 2a2.25 2.25 0 0 0 2.25 3.9zm-1.5-2.6 3.464-2a.75.75 0 1 1 .75 1.3l-3.464 2a.75.75 0 0 1 -.75-1.3z"/><path d="m47 49.25a.75.75 0 0 0 -.75.75v5.75l-4.65-6.2a.75.75 0 0 0 -1.35.45v8a.75.75 0 0 0 1.5 0v-5.75l4.65 6.2a.75.75 0 0 0 1.35-.45v-8a.75.75 0 0 0 -.75-.75z"/><path d="m11 57.25h-3.25v-7.25a.75.75 0 0 0 -1.5 0v8a.75.75 0 0 0 .75.75h4a.75.75 0 0 0 0-1.5z"/><path d="m32 49.25h-2a.75.75 0 0 0 -.75.75v8a.75.75 0 0 0 .75.75h2a3.755 3.755 0 0 0 3.75-3.75v-2a3.755 3.755 0 0 0 -3.75-3.75zm2.25 5.75a2.253 2.253 0 0 1 -2.25 2.25h-1.25v-6.5h1.25a2.253 2.253 0 0 1 2.25 2.25z"/><path d="m38 49.25a.75.75 0 0 0 -.75.75v8a.75.75 0 0 0 1.5 0v-8a.75.75 0 0 0 -.75-.75z"/><path d="m57 53.75h-3a.75.75 0 0 0 0 1.5h2.146a2.75 2.75 0 0 1 -5.4-.75v-1a2.747 2.747 0 0 1 4.714-1.92.75.75 0 1 0 1.072-1.049 4.246 4.246 0 0 0 -7.282 2.969v1a4.25 4.25 0 0 0 8.5 0 .75.75 0 0 0 -.75-.75z"/><path d="m16 49.25a3.755 3.755 0 0 0 -3.75 3.75v2a3.75 3.75 0 0 0 7.5 0v-2a3.755 3.755 0 0 0 -3.75-3.75zm2.25 5.75a2.25 2.25 0 0 1 -4.5 0v-2a2.25 2.25 0 0 1 4.5 0z"/><path d="m25.657 50.636a1.683 1.683 0 0 0 -3.314 0l-2.064 7.156a.75.75 0 1 0 1.442.416l.42-1.458h3.718l.42 1.458a.75.75 0 0 0 1.442-.416zm-3.084 4.614 1.211-4.2c.119-.412.313-.412.432 0l1.211 4.2z"/></svg>