<svg id="Capa_1" enable-background="new 0 0 512.084 512.084"
     height="512" viewBox="0 0 512.084 512.084"
     fill="#3cb5a0" width="512" xmlns="http://www.w3.org/2000/svg">
    <g id="XMLID_581_"><g id="XMLID_981_"><path id="XMLID_984_" d="m496.154 234.647c10.199-11.708 15.888-26.708 15.888-42.521 0-35.75-29.084-64.833-64.834-64.833-13.871 0-27.134 4.362-38.165 12.427-5.694-4.163-11.986-7.33-18.647-9.429l-127.361-127.362c-3.904-3.905-10.237-3.905-14.142 0l-127.502 127.503c-6.522 2.109-12.681 5.252-18.265 9.348-11.047-8.104-24.339-12.487-38.25-12.487-35.75 0-64.833 29.084-64.833 64.833 0 15.813 5.688 30.813 15.888 42.521-10.201 11.708-15.889 26.707-15.889 42.52s5.688 30.813 15.888 42.521c-10.2 11.708-15.888 26.708-15.888 42.521s5.688 30.813 15.888 42.521c-10.2 11.707-15.888 26.707-15.888 42.52 0 35.75 29.084 64.833 64.833 64.833 13.911 0 27.204-4.383 38.25-12.487 11.046 8.104 24.339 12.487 38.25 12.487s27.204-4.383 38.25-12.487c11.046 8.104 24.339 12.487 38.25 12.487s27.204-4.383 38.25-12.487c11.046 8.104 24.339 12.487 38.25 12.487s27.204-4.383 38.25-12.487c11.047 8.104 24.34 12.487 38.251 12.487 13.871 0 27.134-4.362 38.165-12.427 11.031 8.065 24.294 12.427 38.165 12.427 35.75 0 64.834-29.084 64.834-64.833 0-15.813-5.688-30.813-15.888-42.521 10.199-11.708 15.888-26.708 15.888-42.521s-5.688-30.812-15.888-42.521c10.199-11.708 15.888-26.708 15.888-42.521.002-15.811-5.686-30.811-15.886-42.519zm-240.19-210.505 104.062 104.062c-9.917 1.669-19.268 5.61-27.399 11.575-11.046-8.104-24.338-12.487-38.25-12.487s-27.204 4.383-38.25 12.487c-11.046-8.104-24.338-12.487-38.25-12.487s-27.204 4.383-38.25 12.487c-8.207-6.021-17.655-9.983-27.674-11.625zm219.54 218.256c10.511 8.566 16.538 21.239 16.538 34.769s-6.027 26.203-16.538 34.77c-2.329 1.899-3.682 4.746-3.682 7.751s1.353 5.852 3.682 7.751c10.511 8.566 16.538 21.239 16.538 34.769s-6.027 26.203-16.538 34.77c-2.329 1.899-3.682 4.746-3.682 7.751s1.353 5.853 3.683 7.751c10.51 8.566 16.537 21.239 16.537 34.769 0 24.721-20.112 44.833-44.834 44.833-11.706 0-22.787-4.496-31.202-12.659-1.939-1.881-4.451-2.822-6.963-2.822s-5.023.941-6.963 2.822c-8.415 8.163-19.496 12.659-31.202 12.659-11.743 0-22.849-4.519-31.273-12.725-3.883-3.783-10.071-3.782-13.956 0-8.423 8.206-19.528 12.725-31.271 12.725s-22.849-4.519-31.272-12.725c-3.883-3.782-10.073-3.782-13.956 0-8.423 8.206-19.529 12.725-31.272 12.725s-22.849-4.519-31.272-12.725c-3.883-3.783-10.073-3.782-13.956 0-8.424 8.206-19.531 12.725-31.273 12.725-11.743 0-22.849-4.519-31.272-12.725-3.883-3.783-10.073-3.782-13.956 0-8.424 8.206-19.53 12.725-31.273 12.725-24.721 0-44.833-20.112-44.833-44.833 0-13.531 6.027-26.204 16.537-34.769 2.331-1.899 3.683-4.745 3.683-7.751s-1.352-5.853-3.682-7.751c-10.51-8.566-16.538-21.239-16.538-34.77 0-13.53 6.028-26.203 16.538-34.769 2.33-1.899 3.682-4.746 3.682-7.751s-1.352-5.853-3.682-7.751c-10.51-8.566-16.538-21.239-16.538-34.77 0-13.53 6.028-26.203 16.538-34.769 2.33-1.899 3.682-4.746 3.682-7.751s-1.352-5.853-3.682-7.751c-10.51-8.566-16.538-21.239-16.538-34.769 0-24.721 20.112-44.833 44.833-44.833 11.743 0 22.849 4.519 31.272 12.725 3.884 3.782 10.073 3.782 13.956 0 8.423-8.206 19.529-12.725 31.272-12.725s22.849 4.519 31.272 12.725c3.884 3.782 10.073 3.782 13.956 0 8.423-8.206 19.529-12.725 31.272-12.725s22.849 4.519 31.272 12.725c3.883 3.782 10.073 3.782 13.956 0 8.423-8.206 19.529-12.725 31.272-12.725s22.85 4.519 31.271 12.725c3.885 3.783 10.073 3.784 13.956 0 8.424-8.206 19.53-12.725 31.273-12.725 11.706 0 22.787 4.496 31.202 12.659 3.879 3.763 10.047 3.763 13.926 0 8.415-8.163 19.496-12.659 31.202-12.659 24.722 0 44.834 20.112 44.834 44.833 0 13.53-6.027 26.203-16.538 34.769-2.329 1.899-3.682 4.746-3.682 7.751s1.355 5.852 3.684 7.751z"/><path id="XMLID_988_" d="m446.796 196.709c0-5.523-4.478-10-10-10h-135.794c-5.522 0-10 4.477-10 10s4.478 10 10 10h125.794v172.779c-10.205-12.781-23.726-22.8-39.249-28.746 8.08-8.293 13.072-19.609 13.072-32.074v-16c0-25.364-20.636-46-46-46s-46 20.636-46 46v16c0 12.462 4.989 23.775 13.064 32.067-12.181 4.649-23.298 11.853-32.577 21.199 3.187-5.557 5.02-11.986 5.02-18.839 0-20.953-17.047-38-38-38s-38 17.047-38 38c0 6.859 1.836 13.293 5.028 18.853-9.283-9.345-20.408-16.555-32.59-21.208 8.079-8.293 13.069-19.608 13.069-32.072v-16c0-25.364-20.636-46-46-46s-46 20.636-46 46v16c0 12.465 4.991 23.781 13.071 32.074-15.685 6.008-29.329 16.172-39.57 29.145v-173.178h125.87c5.523 0 10-4.477 10-10s-4.477-10-10-10h-135.872c-5.523 0-10 4.477-10 10v245.959c0 5.523 4.477 10 10 10h361.664c.026 0 .052-.004.078-.004s.052.004.078.004c5.522 0 10-4.477 10-10zm-118.178 121.959v-16c0-14.336 11.663-26 26-26s26 11.664 26 26v16c0 14.336-11.663 26-26 26s-26-11.664-26-26zm-72.493 16.426c9.925 0 18 8.075 18 18s-8.075 18-18 18-18-8.075-18-18 8.074-18 18-18zm-124.494-16.426v-16c0-14.336 11.664-26 26-26s26 11.664 26 26v16c0 14.336-11.664 26-26 26s-26-11.664-26-26zm26 46c20.794 0 40.414 8.938 54.061 24.278-11.597 11.132-19.018 26.57-19.66 43.722h-106.592c2.25-37.874 33.763-68 72.191-68zm54.406 68c1.259-23.138 20.48-41.573 43.927-41.573 23.446 0 42.667 18.436 43.927 41.573zm107.859 0c-.639-17.066-7.988-32.437-19.486-43.556 13.65-15.448 33.308-24.444 54.208-24.444 38.367 0 69.837 30.03 72.178 67.817v.183z"/><path id="XMLID_994_" d="m256.003 206.71c2.63 0 5.21-1.07 7.069-2.93 1.86-1.86 2.931-4.44 2.931-7.07s-1.07-5.21-2.931-7.07c-1.859-1.86-4.439-2.93-7.069-2.93s-5.21 1.07-7.07 2.93-2.93 4.44-2.93 7.07 1.07 5.21 2.93 7.07 4.44 2.93 7.07 2.93z"/></g></g></svg>