<?xml version="1.0" encoding="iso-8859-1"?>
<!-- Generator: Adobe Illustrator 19.0.0, SVG Export Plug-In . SVG Version: 6.00 Build 0)  -->
<svg version="1.1" id="Capa_1" xmlns="http://www.w3.org/2000/svg" x="0px" y="0px"
	 viewBox="0 0 512.002 512.002" fill="#3cb5a0" style="enable-background:new 0 0 512.002 512.002;" xml:space="preserve">
<g>
	<g>
		<path d="M436.002,0h-360c-16.542,0-30,13.458-30,30v452.002c0,16.542,13.458,30,30,30h360c16.542,0,29.999-13.458,29.999-30V30
			C466.002,13.458,452.545,0,436.002,0z M446.002,482.002c0,5.514-4.485,10-9.999,10h-360c-5.514,0-10-4.486-10-10V30
			c0-5.514,4.486-10,10-10h360c5.514,0,9.999,4.486,9.999,10V482.002z"/>
	</g>
</g>
<g>
	<g>
		<path d="M421.002,35H91.003c-5.522,0-10,4.477-10,10v422.003c0,5.523,4.478,10,10,10h329.999c5.522,0,10-4.477,10-10V45
			C431.002,39.477,426.524,35,421.002,35z M119.215,457.003c2.228-11.724,7.299-29.858,13.983-49.577
			c10.254-30.246,18.678-48.043,21.343-50.977c8.238-8.238,32.268-23.488,55.558-26.811c4.847,20.87,23.581,36.473,45.903,36.473
			c22.322,0,41.057-15.604,45.902-36.473c23.288,3.322,47.314,18.568,55.516,26.767c2.707,2.977,11.131,20.774,21.385,51.021
			c1.691,4.986,3.277,9.871,4.741,14.577h-17.628c-5.522,0-10,4.477-10,10s4.478,10,10,10h23.398c1.492,5.689,2.666,10.76,3.472,15
			H119.215z M279.882,195.794c14.478,14.646,30.318,24.163,45.978,27.667c-4.678,41.02-20.789,79.744-64.362,82.729
			c-0.059,0.004-0.116,0.008-0.175,0.012c-0.735,0.049-1.482,0.083-2.233,0.112c-0.164,0.006-0.327,0.015-0.492,0.02
			c-0.855,0.027-1.719,0.042-2.595,0.042c-0.876,0-1.739-0.016-2.595-0.042c-0.165-0.005-0.328-0.014-0.492-0.02
			c-0.751-0.028-1.498-0.063-2.233-0.112c-0.059-0.003-0.116-0.008-0.175-0.012c-39.595-2.712-56.514-34.934-62.784-71.573
			C209.978,230.753,252.034,220.527,279.882,195.794z M185.32,214.751c-0.558-7.281-0.793-14.559-0.793-21.65
			c0-39.411,32.063-71.475,71.476-71.475c39.411,0,71.475,32.063,71.475,71.475c0,3.325-0.053,6.691-0.164,10.079
			c-13.135-3.85-27.073-13.748-39.488-28.292c-1.874-2.196-4.606-3.475-7.494-3.507c-2.839-0.039-5.647,1.186-7.57,3.339
			C253.403,196.401,216.613,209.251,185.32,214.751z M282.897,322.575c-1.765,13.268-13.152,23.536-26.895,23.536
			c-13.743,0-25.131-10.269-26.895-23.537c6.122,1.871,12.653,3.058,19.585,3.544c0.188,0.013,0.375,0.024,0.561,0.037
			c0.883,0.057,1.771,0.102,2.667,0.136c0.268,0.01,0.535,0.022,0.804,0.031c1.085,0.033,2.175,0.055,3.278,0.055
			c1.104,0,2.193-0.022,3.278-0.055c0.269-0.008,0.535-0.02,0.803-0.031c0.896-0.034,1.786-0.08,2.67-0.137
			c0.186-0.012,0.372-0.023,0.558-0.036C270.243,325.633,276.775,324.446,282.897,322.575z M411.002,446.46
			c-1.271-5.606-2.828-11.522-4.448-17.238c-0.024-0.086-0.046-0.173-0.073-0.259c-3.452-12.157-7.171-23.367-8.979-28.682
			c-4.975-14.621-17.46-49.539-25.896-57.975c-9.019-9.019-35.806-27.31-64.701-32.131c26.477-20.614,40.574-60.466,40.574-117.074
			c0-50.439-41.035-91.475-91.475-91.475s-91.476,41.035-91.476,91.475c0,56.608,14.097,96.461,40.574,117.074
			c-28.896,4.82-55.684,23.113-64.702,32.131c-8.436,8.436-20.92,43.353-25.896,57.975c-2.672,7.849-9.505,28.552-13.501,46.179V55
			h309.999V446.46z"/>
	</g>
</g>
<g>
	<g>
		<path d="M157.037,70h-31.034c-5.522,0-10,4.477-10,10s4.477,10,10,10h31.034c5.522,0,10-4.477,10-10S162.559,70,157.037,70z"/>
	</g>
</g>
<g>
	<g>
		<path d="M186.037,70h-0.27c-5.522,0-10,4.477-10,10s4.478,10,10,10h0.27c5.522,0,10-4.477,10-10S191.559,70,186.037,70z"/>
	</g>
</g>
<g>
	<g>
		<path d="M337.188,422.002h-0.268c-5.523,0-10,4.477-10,10c0,5.523,4.477,10,10,10h0.268c5.522,0,10-4.477,10-10
			S342.71,422.002,337.188,422.002z"/>
	</g>
</g>
<g>
</g>
<g>
</g>
<g>
</g>
<g>
</g>
<g>
</g>
<g>
</g>
<g>
</g>
<g>
</g>
<g>
</g>
<g>
</g>
<g>
</g>
<g>
</g>
<g>
</g>
<g>
</g>
<g>
</g>
</svg>
